<svg id="svg6" clip-rule="evenodd" fill-rule="evenodd" height="512" stroke-linejoin="round" stroke-miterlimit="2" viewBox="0 0 24 24" width="512" xmlns="http://www.w3.org/2000/svg" xmlns:svg="http://www.w3.org/2000/svg"><path id="path2" d="m9 5c0-.796.316-1.559.879-2.121.562-.563 1.325-.879 2.121-.879s1.559.316 2.121.879c.563.562.879 1.325.879 2.121h4c.552 0 1 .448 1 1v15c0 .552-.448 1-1 1h-14c-.552 0-1-.448-1-1v-15c0-.552.448-1 1-1zm6 2h-1c-.552 0-1-.448-1-1 0 0 0-.449 0-1 0-.265-.105-.52-.293-.707-.187-.188-.442-.293-.707-.293s-.52.105-.707.293c-.188.187-.293.442-.293.707v1c0 .552-.448 1-1 1h-1v2h6z"/></svg>