<svg id="svg6" clip-rule="evenodd" fill-rule="evenodd" height="512" stroke-linejoin="round" stroke-miterlimit="2" viewBox="0 0 24 24" width="512" xmlns="http://www.w3.org/2000/svg" xmlns:svg="http://www.w3.org/2000/svg"><path id="path2" d="m3 20c0 .552.448 1 1 1h6c.552 0 1-.448 1-1v-6c0-.552-.448-1-1-1h-6c-.552 0-1 .448-1 1zm10 0c0 .552.448 1 1 1h6c.552 0 1-.448 1-1v-6c0-.552-.448-1-1-1h-6c-.552 0-1 .448-1 1zm-10-10c0 .552.448 1 1 1h6c.552 0 1-.448 1-1v-6c0-.552-.448-1-1-1h-6c-.552 0-1 .448-1 1zm10 0c0 .552.448 1 1 1h6c.552 0 1-.448 1-1v-6c0-.552-.448-1-1-1h-6c-.552 0-1 .448-1 1z"/></svg>