<svg id="svg6" clip-rule="evenodd" fill-rule="evenodd" height="512" stroke-linejoin="round" stroke-miterlimit="2" viewBox="0 0 24 24" width="512" xmlns="http://www.w3.org/2000/svg" xmlns:svg="http://www.w3.org/2000/svg"><path id="path2" d="m20.868 12.496c.176-.307.176-.685 0-.992l-4-7c-.178-.312-.509-.504-.868-.504h-8c-.359 0-.69.192-.868.504l-4 7c-.176.307-.176.685 0 .992l4 7c.178.312.509.504.868.504h8c.359 0 .69-.192.868-.504zm-8.868-4.496c-2.208 0-4 1.792-4 4s1.792 4 4 4 4-1.792 4-4-1.792-4-4-4z"/></svg>